<?xml version="1.0" encoding="utf-8"?>
<svg width="53" height="42" viewBox="0 0 53 42" fill="none" xmlns="http://www.w3.org/2000/svg">
<path d="M16.6721 9.30864C18.1282 10.0469 19.3947 11.0187 20.4732 12.2202C21.5503 13.4216 22.3995 14.7967 23.0196 16.3452C23.6396 17.8924 23.9483 19.477 23.9483 21.095C23.9483 22.9439 23.6091 24.654 22.9321 26.2252C22.2551 27.7978 21.3555 29.1608 20.2307 30.3169C19.1072 31.4716 17.8287 32.3807 16.3966 33.0375C14.9617 33.6956 13.4872 34.0254 11.9742 34.0254C10.4612 34.0254 8.98658 33.6956 7.55174 33.0375C6.11956 32.3794 4.84107 31.4716 3.71758 30.3169C2.59277 29.1608 1.69318 27.7978 1.01617 26.2252C0.339167 24.654 0 22.9439 0 21.095C0 19.477 0.308694 17.8924 0.928732 16.3452C1.5501 14.7967 2.39801 13.4216 3.47513 12.2202C4.55357 11.0187 5.82014 10.0469 7.27617 9.30864C8.73353 8.56908 10.2982 8.1993 11.9728 8.1993C13.6475 8.1993 15.2121 8.57041 16.6695 9.30864H16.6721ZM8.242 9.44748C7.22185 9.9561 6.38851 10.7304 5.74727 11.769C5.10604 12.8089 4.64499 14.1038 4.37074 15.6524C4.09649 17.1996 3.9587 19.0151 3.9587 21.095C3.9587 22.6903 4.06072 24.2321 4.2674 25.7233C4.47408 27.2131 4.87154 28.5427 5.4558 29.7095C6.04007 30.8762 6.85486 31.8067 7.89886 32.4995C8.94153 33.1924 10.3022 33.5395 11.9768 33.5395C13.6514 33.5395 15.0107 33.1924 16.0547 32.4995C17.0974 31.8067 17.9135 30.8749 18.4965 29.7095C19.0807 28.5427 19.4769 27.2131 19.6849 25.7233C19.8916 24.2321 19.9936 22.6903 19.9936 21.095C19.9936 19.0151 19.8558 17.2009 19.5815 15.6524C19.3073 14.1038 18.8462 12.8102 18.205 11.769C17.5624 10.729 16.7304 9.95476 15.7103 9.44748C14.6901 8.93886 13.4448 8.68388 11.9768 8.68388C10.5088 8.68388 9.26347 8.93886 8.24332 9.44748H8.242Z" fill="black"/>
<path d="M45.7239 9.30864C47.1799 10.0469 48.4465 11.0187 49.5249 12.2202C50.6021 13.4216 51.4513 14.7967 52.0713 16.3452C52.6914 17.8924 53.0001 19.477 53.0001 21.095C53.0001 22.9439 52.6609 24.654 51.9839 26.2252C51.3069 27.7978 50.4073 29.1608 49.2825 30.3169C48.159 31.4716 46.8805 32.3807 45.4483 33.0375C44.0135 33.6956 42.5389 34.0254 41.0259 34.0254C39.5129 34.0254 38.0383 33.6956 36.6035 33.0375C35.1713 32.3794 33.8928 31.4716 32.7693 30.3169C31.6445 29.1608 30.7449 27.7978 30.0679 26.2252C29.3909 24.654 29.0518 22.9439 29.0518 21.095C29.0518 19.477 29.3605 17.8924 29.9805 16.3452C30.6019 14.7967 31.4498 13.4216 32.5269 12.2202C33.6053 11.0187 34.8719 10.0469 36.3279 9.30864C37.7853 8.56908 39.35 8.1993 41.0246 8.1993C42.6992 8.1993 44.2639 8.57041 45.7212 9.30864H45.7239ZM37.2938 9.44748C36.2736 9.9561 35.4403 10.7304 34.799 11.769C34.1578 12.8089 33.6967 14.1038 33.4225 15.6524C33.1483 17.1996 33.0105 19.0151 33.0105 21.095C33.0105 22.6903 33.1125 24.2321 33.3192 25.7233C33.5258 27.2131 33.9233 28.5427 34.5062 29.7095C35.0905 30.8762 35.9053 31.8067 36.9493 32.4995C37.992 33.1924 39.3526 33.5395 41.0272 33.5395C42.7019 33.5395 44.0612 33.1924 45.1052 32.4995C46.1479 31.8067 46.964 30.8749 47.5482 29.7095C48.1325 28.5427 48.5286 27.2131 48.7366 25.7233C48.9433 24.2321 49.0453 22.6903 49.0453 21.095C49.0453 19.0151 48.9075 17.2009 48.6333 15.6524C48.3591 14.1038 47.898 12.8102 47.2568 11.769C46.6142 10.729 45.7822 9.95476 44.762 9.44748C43.7419 8.93886 42.4965 8.68388 41.0286 8.68388C39.5606 8.68388 38.3152 8.93886 37.2951 9.44748H37.2938Z" fill="black"/>
<path d="M26.7902 0H26.2139V41.126H26.7902V0Z" fill="black"/>
</svg>
